<?xml version="1.0" encoding="iso-8859-1"?>
<!-- Generator: Adobe Illustrator 19.0.0, SVG Export Plug-In . SVG Version: 6.00 Build 0)  -->
<svg xmlns="http://www.w3.org/2000/svg" xmlns:xlink="http://www.w3.org/1999/xlink" version="1.1" id="Layer_1" x="0px" y="0px" viewBox="0 0 503.846 503.846" style="enable-background:new 0 0 503.846 503.846;" xml:space="preserve" width="512" height="512">
<g>
	<path d="M224.501,282.883c-2.93-2.929-7.678-2.929-10.607,0c-2.929,2.929-2.929,7.678,0,10.606   c10.484,10.484,24.255,15.726,38.026,15.726c13.771,0,27.542-5.242,38.026-15.726c2.929-2.929,2.929-7.678,0-10.606   c-2.93-2.929-7.678-2.929-10.607,0C264.22,298.002,239.62,298.002,224.501,282.883z"/>
	<path d="M200.134,210.518c-4.143,0-7.5,3.358-7.5,7.5v29.22c0,4.142,3.357,7.5,7.5,7.5s7.5-3.358,7.5-7.5v-29.22   C207.634,213.876,204.277,210.518,200.134,210.518z"/>
	<path d="M303.708,254.738c4.143,0,7.5-3.358,7.5-7.5v-29.22c0-4.142-3.357-7.5-7.5-7.5s-7.5,3.358-7.5,7.5v29.22   C296.208,251.38,299.566,254.738,303.708,254.738z"/>
	<path d="M454.113,14.663c-8.145,0-15.436,3.717-20.271,9.542C413.562,7.381,353.968-11.9,306.516,9.38   c-18.995,8.519-33.923,22.517-44.368,41.605c-4.135,7.556-7.554,15.916-10.248,25.04c-11.551-38.858-34.434-57.615-54.568-66.645   c-47.447-21.281-107.048-2-127.328,14.825c-4.835-5.825-12.126-9.542-20.271-9.542C35.21,14.663,23.396,26.478,23.396,41   c0,14.522,11.814,26.337,26.337,26.337c10.563,0,19.688-6.253,23.881-15.25c23.362,13.866,39.195,38.729,47.114,74.075   c6.764,30.192,4.825,65.924,4.825,65.924c-0.138-0.001-0.274-0.013-0.412-0.013c-25.614,0-46.453,20.835-46.453,46.444   c0,25.614,20.839,46.453,46.453,46.453c0.76,0,1.518-0.021,2.273-0.058c1.649,9.515,4.361,18.669,8.017,27.333l-47.018,18.619   c-2.664,1.055-4.494,3.537-4.716,6.394c-0.222,2.857,1.205,5.591,3.675,7.044l36.937,21.728l-31.202,70.493   c-1.131,2.555-0.748,5.527,0.994,7.711c1.741,2.184,4.558,3.221,7.296,2.686l24.21-4.709c-0.037,1.249-0.059,2.498-0.059,3.746   v50.39c0,4.142,3.357,7.5,7.5,7.5h17.102c4.143,0,7.5-3.358,7.5-7.5s-3.357-7.5-7.5-7.5h-9.602v-42.89   c0-2.232,0.074-4.468,0.208-6.692l47.626-9.265l56.031,44.572v14.275h-64.262c-4.143,0-7.5,3.358-7.5,7.5s3.357,7.5,7.5,7.5   h190.646c4.143,0,7.5-3.358,7.5-7.5v-50.39c0-1.243-0.022-2.492-0.059-3.742l24.189,4.706c2.744,0.533,5.555-0.5,7.297-2.686   c1.742-2.185,2.125-5.156,0.994-7.711l-31.202-70.493l36.938-21.728c2.47-1.453,3.896-4.187,3.675-7.044   c-0.222-2.857-2.052-5.338-4.716-6.394l-47.01-18.616c3.656-8.678,6.367-17.823,8.016-27.297   c25.245-0.43,45.653-21.086,45.653-46.432c0-24.711-19.405-44.971-43.779-46.362c0,0-2.46-42.751,7.785-77.44   c1.174-3.973-1.096-8.144-5.068-9.317c-3.977-1.175-8.144,1.096-9.316,5.068c-8.021,27.155-8.863,53.232-8.686,65.981H259.423   v-42.316c0-87.889,41.948-112.644,77.138-117.934c19.212-2.887,41.861-0.534,62.142,6.458   c15.229,5.251,23.659,11.077,27.256,14.606c-18.251,9.892-32.845,25.291-43.444,45.864c-1.897,3.682-0.45,8.205,3.232,10.102   c3.682,1.898,8.204,0.45,10.102-3.232c8.606-16.705,20.158-29.402,34.393-37.889c4.198,8.985,13.318,15.229,23.873,15.229   c14.522,0,26.337-11.815,26.337-26.337C480.45,26.478,468.636,14.663,454.113,14.663z M49.733,52.337   c-6.251,0-11.337-5.086-11.337-11.337c0-6.251,5.086-11.337,11.337-11.337c5.528,0,10.137,3.979,11.132,9.222   c-0.053,1.006,0.017,1.944,0.17,2.805C60.675,47.62,55.751,52.337,49.733,52.337z M125.141,269.97   c-17.344,0-31.453-14.109-31.453-31.453c0-17.338,14.109-31.444,31.453-31.444c0.14,0,0.273,0.01,0.412,0.012v15.428   c-11.039,0.586-17.994,7.178-21.042,14.181c-1.653,3.798,0.086,8.217,3.884,9.87c0.975,0.424,1.99,0.625,2.989,0.625   c2.895,0,5.652-1.686,6.881-4.509c1.499-3.443,4.381-4.751,7.288-5.091v25.68c0,2.243,0.061,4.472,0.177,6.687   C125.533,269.959,125.338,269.97,125.141,269.97z M363.298,445.956v42.89H259.413v-14.275l56.031-44.572l47.648,9.269   C363.225,441.502,363.298,443.738,363.298,445.956z M395.614,339.158l-29.464,17.332c-3.283,1.931-4.598,6.017-3.056,9.5   l28.091,63.462l-76.272-14.837c-2.155-0.422-4.384,0.126-6.101,1.492l-56.899,45.263l-56.899-45.263   c-1.718-1.366-3.946-1.914-6.101-1.492l-76.273,14.837l28.091-63.462c1.542-3.483,0.228-7.569-3.056-9.5l-29.464-17.332   l33.892-13.421c21.777,38.138,62.84,63.903,109.81,63.903c8.07,0,16.146-0.769,23.995-2.285   c37.224-7.152,68.041-30.363,85.838-61.609L395.614,339.158z M407.072,238.519c0,16.502-12.777,30.067-28.957,31.345   c0.114-2.187,0.178-4.384,0.178-6.595v-25.743c3.036,0.185,6.496,1.315,8.164,5.153c1.229,2.825,3.986,4.512,6.882,4.512   c0.998,0,2.013-0.201,2.986-0.624c3.799-1.651,5.539-6.07,3.888-9.868c-4.615-10.615-13.947-13.882-21.92-14.163v-15.34   C394.389,208.559,407.072,222.081,407.072,238.519z M363.293,191.449v71.82c0,53.321-37.94,99.312-90.222,109.356   c-6.921,1.336-14.039,2.014-21.158,2.014c-61.404,0-111.36-49.96-111.36-111.37v-71.82H363.293z M140.835,176.449   c0.146-10.716-0.431-30.866-5.385-53.181c-9.068-40.845-28.906-70.417-57.567-86.001c3.595-3.529,12.026-9.357,27.261-14.61   c20.28-6.992,42.932-9.346,62.142-6.458c35.19,5.291,77.138,30.045,77.138,117.934v42.316H140.835z M454.113,52.337   c-6.019,0-10.943-4.717-11.303-10.646c0.153-0.861,0.223-1.799,0.17-2.806c0.994-5.243,5.604-9.222,11.133-9.222   c6.251,0,11.337,5.086,11.337,11.337C465.45,47.251,460.364,52.337,454.113,52.337z"/>
</g>















</svg>
